<svg xmlns="http://www.w3.org/2000/svg" xmlns:xlink="http://www.w3.org/1999/xlink" width="1760" height="1360"><g transform="translate(0 0)"><path d="M648 120c17.67 0 32 17.9 32 40s-14.33 40-32 40h-96c-17.67 0-32-17.9-32-40s14.33-40 32-40z" stroke="#000" stroke-width="2" fill="#fff"/><use xlink:href="#a" transform="matrix(1,0,0,1,525,125) translate(56.025 38.6)"/><path d="M600 200v77" stroke="#000" stroke-width="2" fill="none"/><path d="M600 277l-4.64-14.27h9.28z"/><path d="M600.85 277.63L600 277l-.85.63-5.16-15.9h12zm-4.1-13.9l3.25 10.03 3.26-10.03z"/><path d="M600 277l80 60-80 60-80-60z" stroke="#000" stroke-width="2" fill="#fff"/><use xlink:href="#b" transform="matrix(1,0,0,1,542,299) translate(3.5 30.799999999999997)"/><use xlink:href="#c" transform="matrix(1,0,0,1,542,299) translate(72.65 30.799999999999997)"/><use xlink:href="#d" transform="matrix(1,0,0,1,542,299) translate(39.55 52.4)"/><path d="M601 500h-2v-61.87h2zm0-83.47h-2V397h2zM601 397h-1l1-.75zm-1 0h-1v-.75z"/><path d="M600 500l-4.64-14.27h9.28z"/><path d="M600.82 500.72L600 500l-.82.72-5.2-16h12.03zm-4.08-14l3.26 10.04 3.26-10.03z"/><use xlink:href="#e" transform="matrix(1,0,0,1,588.525,416.5333333333333) translate(0 14.4)"/><path d="M600 500l80 70-80 70-80-70z" stroke="#000" stroke-width="2" fill="#fff"/><use xlink:href="#f" transform="matrix(1,0,0,1,525,505) translate(13.524999999999991 57.8)"/><use xlink:href="#c" transform="matrix(1,0,0,1,525,505) translate(96.625 57.8)"/><use xlink:href="#d" transform="matrix(1,0,0,1,525,505) translate(56.55 79.4)"/><path d="M601 740h-2v-60.53h2zm0-82.13h-2V640h2zM601 640h-1l1-.88zm-1 0h-1v-.88z"/><path d="M600 740l-4.64-14.27h9.28z"/><path d="M600.85 740.63L600 740l-.85.63-5.16-15.9h12zm-4.1-13.9l3.25 10.03 3.26-10.03z"/><path d="M600 740l80 60-80 60-80-60z" stroke="#000" stroke-width="2" fill="#fff"/><use xlink:href="#g" transform="matrix(1,0,0,1,525,745) translate(15.649999999999991 58.6)"/><use xlink:href="#h" transform="matrix(1,0,0,1,525,745) translate(52.599999999999994 58.6)"/><use xlink:href="#d" transform="matrix(1,0,0,1,525,745) translate(97.45 58.6)"/><path d="M601 740h-2v-60.53h2zm0-82.13h-2V640h2zM601 640h-1l1-.88zm-1 0h-1v-.88z"/><path d="M600 740l-4.64-14.27h9.28z"/><path d="M600.85 740.63L600 740l-.85.63-5.16-15.9h12zm-4.1-13.9l3.25 10.03 3.26-10.03z"/><use xlink:href="#e" transform="matrix(1,0,0,1,588.525,657.8666666666667) translate(0 14.4)"/><path d="M601 960h-2v-61.87h2zm0-83.47h-2V860h2zM601 860h-1l1-.75zm-1 0h-1v-.75z"/><path d="M600 960l-4.64-14.27h9.28z"/><path d="M600.85 960.63L600 960l-.85.63-5.16-15.9h12zm-4.1-13.9l3.25 10.03 3.26-10.03z"/><use xlink:href="#e" transform="matrix(1,0,0,1,588.525,876.5333333333334) translate(0 14.4)"/><path d="M600 960l80 60-80 60-80-60z" stroke="#000" stroke-width="2" fill="#fff"/><use xlink:href="#i" transform="matrix(1,0,0,1,525,965) translate(15.149999999999991 58.6)"/><use xlink:href="#h" transform="matrix(1,0,0,1,525,965) translate(53.099999999999994 58.6)"/><use xlink:href="#d" transform="matrix(1,0,0,1,525,965) translate(97.95 58.6)"/><path d="M601 1160h-2v-29.33h2zm0-50.67h-2V1080h2zM601 1080h-1l1-.75zm-1 0h-1v-.75z"/><path d="M600 1160l-4.64-14.27h9.28z"/><path d="M601.05 1160h-2.1l-4.96-15.27h12zm-4.3-13.27l3.25 10.03 3.26-10.03z"/><use xlink:href="#j" transform="matrix(1,0,0,1,588.6666666666666,1109.3333333333333) translate(0.005000000000000782 14.222222222222223)"/><path d="M648 1160c17.67 0 32 17.9 32 40s-14.33 40-32 40h-96c-17.67 0-32-17.9-32-40s14.33-40 32-40z" stroke="#000" stroke-width="2" fill="#fff"/><use xlink:href="#k" transform="matrix(1,0,0,1,525,1165) translate(59 38.6)"/><path d="M755.33 338H680v-2h75.33zM860 338h-75.33v-2H860zM680 338h-1.33l1.33-1-1.33-1H680z"/><path d="M860 337l-14.27 4.64v-9.28z"/><path d="M860 335.95v2.1L844.73 343v-12zm-13.27 4.3l10.03-3.25-10.03-3.26z"/><use xlink:href="#l" transform="matrix(1,0,0,1,755.325,326.2) translate(0 14.4)"/><path d="M1080 280h310v120h-310z" stroke="#000" stroke-width="2" fill="#fff"/><use xlink:href="#m" transform="matrix(1,0,0,1,1102,302) translate(0 21)"/><use xlink:href="#n" transform="matrix(1,0,0,1,1102,302) translate(54 21)"/><use xlink:href="#o" transform="matrix(1,0,0,1,1102,302) translate(110.9 21)"/><use xlink:href="#p" transform="matrix(1,0,0,1,1102,302) translate(0 42.6)"/><use xlink:href="#q" transform="matrix(1,0,0,1,1102,302) translate(54 42.6)"/><use xlink:href="#r" transform="matrix(1,0,0,1,1102,302) translate(99.2 42.6)"/><use xlink:href="#s" transform="matrix(1,0,0,1,1102,302) translate(0 64.2)"/><use xlink:href="#t" transform="matrix(1,0,0,1,1102,302) translate(54 64.2)"/><use xlink:href="#u" transform="matrix(1,0,0,1,1102,302) translate(94.9 64.2)"/><use xlink:href="#v" transform="matrix(1,0,0,1,1102,302) translate(148.8 64.2)"/><path d="M1431 341h-41v-2h39V238H601v39h-2v-41h832z"/><path d="M600 277l-4.64-14.27h9.28z"/><path d="M600.85 277.63L600 277l-.85.63-5.16-15.9h12zm-4.1-13.9l3.25 10.03 3.26-10.03zM755.33 571H680v-2h75.33zM860 569.5h-75.33v-2H860zM680 571h-1.14l1.14-1-1.14-1H680z"/><path d="M860 568.5l-14.27 4.64v-9.28z"/><path d="M860 567.45v2.1l-15.27 4.96v-12zm-13.27 4.3l10.03-3.25-10.03-3.26z"/><use xlink:href="#l" transform="matrix(1,0,0,1,755.325,558.45) translate(0 14.4)"/><path d="M1080 510h310v120h-310z" stroke="#000" stroke-width="2" fill="#fff"/><use xlink:href="#m" transform="matrix(1,0,0,1,1102,532) translate(0 21)"/><use xlink:href="#w" transform="matrix(1,0,0,1,1102,532) translate(54 21)"/><use xlink:href="#x" transform="matrix(1,0,0,1,1102,532) translate(99.9 21)"/><use xlink:href="#p" transform="matrix(1,0,0,1,1102,532) translate(0 42.6)"/><use xlink:href="#y" transform="matrix(1,0,0,1,1102,532) translate(54 42.6)"/><use xlink:href="#s" transform="matrix(1,0,0,1,1102,532) translate(0 64.2)"/><use xlink:href="#t" transform="matrix(1,0,0,1,1102,532) translate(54 64.2)"/><use xlink:href="#u" transform="matrix(1,0,0,1,1102,532) translate(94.9 64.2)"/><use xlink:href="#v" transform="matrix(1,0,0,1,1102,532) translate(148.8 64.2)"/><path d="M1431 571h-41v-2h39V461H601v39h-2v-41h832z"/><path d="M600 500l-4.64-14.27h9.28z"/><path d="M600.82 500.72L600 500l-.82.72-5.2-16h12.03zm-4.08-14l3.26 10.04 3.26-10.03z"/><path d="M1080 740h310v120h-310z" stroke="#000" stroke-width="2" fill="#fff"/><use xlink:href="#m" transform="matrix(1,0,0,1,1102,762) translate(0 21)"/><use xlink:href="#w" transform="matrix(1,0,0,1,1102,762) translate(54 21)"/><use xlink:href="#z" transform="matrix(1,0,0,1,1102,762) translate(99.9 21)"/><use xlink:href="#A" transform="matrix(1,0,0,1,1102,762) translate(139.9 21)"/><use xlink:href="#B" transform="matrix(1,0,0,1,1102,762) translate(196.65 21)"/><use xlink:href="#C" transform="matrix(1,0,0,1,1102,762) translate(216.65 21)"/><use xlink:href="#p" transform="matrix(1,0,0,1,1102,762) translate(0 42.6)"/><use xlink:href="#D" transform="matrix(1,0,0,1,1102,762) translate(54 42.6)"/><use xlink:href="#E" transform="matrix(1,0,0,1,1102,762) translate(96.95 42.6)"/><use xlink:href="#s" transform="matrix(1,0,0,1,1102,762) translate(0 64.2)"/><use xlink:href="#t" transform="matrix(1,0,0,1,1102,762) translate(54 64.2)"/><use xlink:href="#u" transform="matrix(1,0,0,1,1102,762) translate(94.9 64.2)"/><use xlink:href="#v" transform="matrix(1,0,0,1,1102,762) translate(148.8 64.2)"/><path d="M755.33 801H680v-2h75.33zM860 801h-75.33v-2H860zM680 801h-1.33l1.33-1-1.33-1H680z"/><path d="M860 800l-14.27 4.64v-9.28z"/><path d="M860 798.95v2.1L844.73 806v-12zm-13.27 4.3l10.03-3.25-10.03-3.26z"/><use xlink:href="#l" transform="matrix(1,0,0,1,755.325,789.2) translate(0 14.4)"/><path d="M1080 960h310v120h-310z" stroke="#000" stroke-width="2" fill="#fff"/><use xlink:href="#m" transform="matrix(1,0,0,1,1102,982) translate(0 31.799999999999997)"/><use xlink:href="#F" transform="matrix(1,0,0,1,1102,982) translate(54 31.799999999999997)"/><use xlink:href="#G" transform="matrix(1,0,0,1,1102,982) translate(88 31.799999999999997)"/><use xlink:href="#H" transform="matrix(1,0,0,1,1102,982) translate(133.9 31.799999999999997)"/><use xlink:href="#I" transform="matrix(1,0,0,1,1102,982) translate(167.9 31.799999999999997)"/><use xlink:href="#p" transform="matrix(1,0,0,1,1102,982) translate(0 53.4)"/><use xlink:href="#t" transform="matrix(1,0,0,1,1102,982) translate(54 53.4)"/><use xlink:href="#u" transform="matrix(1,0,0,1,1102,982) translate(94.9 53.4)"/><use xlink:href="#v" transform="matrix(1,0,0,1,1102,982) translate(148.8 53.4)"/><path d="M755.33 1021H680v-2h75.33zm104.67 0h-75.33v-2H860zM680 1021h-1.33l1.33-1-1.33-1H680z"/><path d="M860 1020l-14.27 4.64v-9.28z"/><path d="M860 1018.95v2.1l-15.27 4.96v-12zm-13.27 4.3l10.03-3.25-10.03-3.26z"/><g><use xlink:href="#l" transform="matrix(1,0,0,1,755.325,1009.2) translate(0 14.4)"/></g><path d="M1431 1021h-41v-2h39v-98H601v39h-2v-41h832z"/><path d="M600 960l-4.64-14.27h9.28z"/><path d="M600.85 960.63L600 960l-.85.63-5.16-15.9h12zm-4.1-13.9l3.25 10.03 3.26-10.03z"/><path d="M860 277h160v120H860z" stroke="#000" stroke-width="2" fill="#fff"/><g><use xlink:href="#J" transform="matrix(1,0,0,1,865,282) translate(29.641975308641975 58.55555555555555)"/><use xlink:href="#K" transform="matrix(1,0,0,1,865,282) translate(69.09876543209876 58.55555555555555)"/><use xlink:href="#L" transform="matrix(1,0,0,1,865,282) translate(86.82716049382717 58.55555555555555)"/></g><path d="M1020 337h59" stroke="#000" stroke-width="2" fill="none"/><path d="M1079 337l-14.27 4.64v-9.28z"/><path d="M1080 336.27v1.46l-16.27 5.28v-12zm-14.27 4l10.03-3.27-10.03-3.26z"/><path d="M860 508.5h160v120H860z" stroke="#000" stroke-width="2" fill="#fff"/><g><use xlink:href="#M" transform="matrix(1,0,0,1,865,513.5) translate(12.555555555555543 58.55555555555555)"/><use xlink:href="#K" transform="matrix(1,0,0,1,865,513.5) translate(86.18518518518519 58.55555555555555)"/><use xlink:href="#L" transform="matrix(1,0,0,1,865,513.5) translate(103.91358024691358 58.55555555555555)"/></g><path d="M1020 568.5h59" stroke="#000" stroke-width="2" fill="none"/><path d="M1079 568.5l-14.27 4.64v-9.28z"/><path d="M1080 567.77v1.46l-16.27 5.28v-12zm-14.27 4l10.03-3.27-10.03-3.26zM1431 801h-41v-2h39v-98H601v39h-2v-41h832z"/><path d="M600 740l-4.64-14.27h9.28z"/><path d="M600.85 740.63L600 740l-.85.63-5.16-15.9h12zm-4.1-13.9l3.25 10.03 3.26-10.03z"/><path d="M860 740h160v120H860z" stroke="#000" stroke-width="2" fill="#fff"/><g><use xlink:href="#N" transform="matrix(1,0,0,1,865,745) translate(37.888888888888886 47.888888888888886)"/><use xlink:href="#O" transform="matrix(1,0,0,1,865,745) translate(37.04938271604938 69.22222222222223)"/></g><path d="M1020 800h59" stroke="#000" stroke-width="2" fill="none"/><path d="M1079 800l-14.27 4.64v-9.28z"/><path d="M1080 799.27v1.46l-16.27 5.28v-12zm-14.27 4l10.03-3.27-10.03-3.26z"/><path d="M860 960h160v120H860z" stroke="#000" stroke-width="2" fill="#fff"/><g><use xlink:href="#P" transform="matrix(1,0,0,1,865,965) translate(7.9135802469135825 58.55555555555555)"/><use xlink:href="#Q" transform="matrix(1,0,0,1,865,965) translate(93.69135802469135 58.55555555555555)"/><use xlink:href="#R" transform="matrix(1,0,0,1,865,965) translate(113.44444444444444 58.55555555555555)"/></g><path d="M1020 1020h59" stroke="#000" stroke-width="2" fill="none"/><path d="M1079 1020l-14.27 4.64v-9.28z"/><path d="M1080 1019.27v1.46l-16.27 5.28v-12zm-14.27 4l10.03-3.27-10.03-3.26z"/><path d="M340 220h152l8 8v32H340z" stroke="#d9be60" stroke-width="2" fill="#ffdf71"/><path d="M492 220l8 8h-8z" fill="#d9be60"/><g><use xlink:href="#S" transform="matrix(1,0,0,1,345,225) translate(3.674999999999997 18.6)"/><use xlink:href="#T" transform="matrix(1,0,0,1,345,225) translate(66.575 18.6)"/><use xlink:href="#U" transform="matrix(1,0,0,1,345,225) translate(108.47500000000001 18.6)"/></g><path d="M340 440h152l8 8v32H340z" stroke="#d9be60" stroke-width="2" fill="#ffdf71"/><path d="M492 440l8 8h-8z" fill="#d9be60"/><g><use xlink:href="#V" transform="matrix(1,0,0,1,345,445) translate(7 18.6)"/><use xlink:href="#W" transform="matrix(1,0,0,1,345,445) translate(76.15 18.6)"/><use xlink:href="#U" transform="matrix(1,0,0,1,345,445) translate(105.15 18.6)"/></g><path d="M340 680h152l8 8v32H340z" stroke="#d9be60" stroke-width="2" fill="#ffdf71"/><path d="M492 680l8 8h-8z" fill="#d9be60"/><g><use xlink:href="#X" transform="matrix(1,0,0,1,345,685) translate(2.549999999999997 18.6)"/><use xlink:href="#U" transform="matrix(1,0,0,1,345,685) translate(109.60000000000001 18.6)"/></g><path d="M340 900h152l8 8v32H340z" stroke="#d9be60" stroke-width="2" fill="#ffdf71"/><path d="M492 900l8 8h-8z" fill="#d9be60"/><g><use xlink:href="#Y" transform="matrix(1,0,0,1,345,905) translate(37.599999999999994 18.6)"/><use xlink:href="#U" transform="matrix(1,0,0,1,345,905) translate(74.55 18.6)"/></g><path d="M340 1080h152l8 8v32H340z" stroke="#d9be60" stroke-width="2" fill="#ffdf71"/><path d="M492 1080l8 8h-8z" fill="#d9be60"/><g><use xlink:href="#Z" transform="matrix(1,0,0,1,345,1085) translate(37.099999999999994 18.6)"/><use xlink:href="#U" transform="matrix(1,0,0,1,345,1085) translate(75.05 18.6)"/></g><defs><path d="M185-189c-5-48-123-54-124 2 14 75 158 14 163 119 3 78-121 87-175 55-17-10-28-26-33-46l33-7c5 56 141 63 141-1 0-78-155-14-162-118-5-82 145-84 179-34 5 7 8 16 11 25" id="aa"/><path d="M59-47c-2 24 18 29 38 22v24C64 9 27 4 27-40v-127H5v-23h24l9-43h21v43h35v23H59v120" id="ab"/><path d="M141-36C126-15 110 5 73 4 37 3 15-17 15-53c-1-64 63-63 125-63 3-35-9-54-41-54-24 1-41 7-42 31l-33-3c5-37 33-52 76-52 45 0 72 20 72 64v82c-1 20 7 32 28 27v20c-31 9-61-2-59-35zM48-53c0 20 12 33 32 33 41-3 63-29 60-74-43 2-92-5-92 41" id="ac"/><path d="M114-163C36-179 61-72 57 0H25l-1-190h30c1 12-1 29 2 39 6-27 23-49 58-41v29" id="ad"/><g id="a"><use transform="matrix(0.05,0,0,0.05,0,0)" xlink:href="#aa"/><use transform="matrix(0.05,0,0,0.05,12,0)" xlink:href="#ab"/><use transform="matrix(0.05,0,0,0.05,17,0)" xlink:href="#ac"/><use transform="matrix(0.05,0,0,0.05,27,0)" xlink:href="#ad"/><use transform="matrix(0.05,0,0,0.05,32.95,0)" xlink:href="#ab"/></g><path d="M127-220V0H93v-220H8v-28h204v28h-85" id="ae"/><path d="M24-231v-30h32v30H24zM24 0v-190h32V0H24" id="af"/><path d="M117-194c89-4 53 116 60 194h-32v-121c0-31-8-49-39-48C34-167 62-67 57 0H25l-1-190h30c1 10-1 24 2 32 11-22 29-35 61-36" id="ag"/><path d="M177-190C167-65 218 103 67 71c-23-6-38-20-44-43l32-5c15 47 100 32 89-28v-30C133-14 115 1 83 1 29 1 15-40 15-95c0-56 16-97 71-98 29-1 48 16 59 35 1-10 0-23 2-32h30zM94-22c36 0 50-32 50-73 0-42-14-75-50-75-39 0-46 34-46 75s6 73 46 73" id="ah"/><g id="b"><use transform="matrix(0.05,0,0,0.05,0,0)" xlink:href="#ae"/><use transform="matrix(0.05,0,0,0.05,10.3,0)" xlink:href="#ad"/><use transform="matrix(0.05,0,0,0.05,16.25,0)" xlink:href="#ac"/><use transform="matrix(0.05,0,0,0.05,26.25,0)" xlink:href="#af"/><use transform="matrix(0.05,0,0,0.05,30.200000000000003,0)" xlink:href="#ag"/><use transform="matrix(0.05,0,0,0.05,40.2,0)" xlink:href="#af"/><use transform="matrix(0.05,0,0,0.05,44.150000000000006,0)" xlink:href="#ag"/><use transform="matrix(0.05,0,0,0.05,54.150000000000006,0)" xlink:href="#ah"/></g><path d="M30 0v-248h187v28H63v79h144v27H63v87h162V0H30" id="ai"/><path d="M100-194c62-1 85 37 85 99 1 63-27 99-86 99S16-35 15-95c0-66 28-99 85-99zM99-20c44 1 53-31 53-75 0-43-8-75-51-75s-53 32-53 75 10 74 51 75" id="aj"/><g id="c"><use transform="matrix(0.05,0,0,0.05,0,0)" xlink:href="#ai"/><use transform="matrix(0.05,0,0,0.05,12,0)" xlink:href="#ad"/><use transform="matrix(0.05,0,0,0.05,17.95,0)" xlink:href="#ad"/><use transform="matrix(0.05,0,0,0.05,23.9,0)" xlink:href="#aj"/><use transform="matrix(0.05,0,0,0.05,33.9,0)" xlink:href="#ad"/></g><path d="M197 0v-115H63V0H30v-248h33v105h134v-105h34V0h-34" id="ak"/><path d="M106-169C34-169 62-67 57 0H25v-261h32l-1 103c12-21 28-36 61-36 89 0 53 116 60 194h-32v-121c2-32-8-49-39-48" id="al"/><g id="d"><use transform="matrix(0.05,0,0,0.05,0,0)" xlink:href="#ak"/><use transform="matrix(0.05,0,0,0.05,12.950000000000001,0)" xlink:href="#af"/><use transform="matrix(0.05,0,0,0.05,16.900000000000002,0)" xlink:href="#ah"/><use transform="matrix(0.05,0,0,0.05,26.900000000000002,0)" xlink:href="#al"/></g><path d="M190 0L58-211 59 0H30v-248h39L202-35l-2-213h31V0h-41" id="am"/><g id="e"><use transform="matrix(0.05,0,0,0.05,0,0)" xlink:href="#am"/><use transform="matrix(0.05,0,0,0.05,12.950000000000001,0)" xlink:href="#aj"/></g><path d="M16-82v-28h88v28H16" id="an"/><path d="M30-248c118-7 216 8 213 122C240-48 200 0 122 0H30v-248zM63-27c89 8 146-16 146-99s-60-101-146-95v194" id="ao"/><path d="M100-194c63 0 86 42 84 106H49c0 40 14 67 53 68 26 1 43-12 49-29l28 8c-11 28-37 45-77 45C44 4 14-33 15-96c1-61 26-98 85-98zm52 81c6-60-76-77-97-28-3 7-6 17-6 28h103" id="ap"/><path d="M108 0H70L1-190h34L89-25l56-165h34" id="aq"/><g id="f"><use transform="matrix(0.05,0,0,0.05,0,0)" xlink:href="#ae"/><use transform="matrix(0.05,0,0,0.05,10.3,0)" xlink:href="#ad"/><use transform="matrix(0.05,0,0,0.05,16.25,0)" xlink:href="#ac"/><use transform="matrix(0.05,0,0,0.05,26.25,0)" xlink:href="#af"/><use transform="matrix(0.05,0,0,0.05,30.200000000000003,0)" xlink:href="#ag"/><use transform="matrix(0.05,0,0,0.05,40.2,0)" xlink:href="#an"/><use transform="matrix(0.05,0,0,0.05,46.150000000000006,0)" xlink:href="#ao"/><use transform="matrix(0.05,0,0,0.05,59.1,0)" xlink:href="#ap"/><use transform="matrix(0.05,0,0,0.05,69.10000000000001,0)" xlink:href="#aq"/></g><g id="g"><use transform="matrix(0.05,0,0,0.05,0,0)" xlink:href="#ao"/><use transform="matrix(0.05,0,0,0.05,12.950000000000001,0)" xlink:href="#ap"/><use transform="matrix(0.05,0,0,0.05,22.950000000000003,0)" xlink:href="#aq"/></g><g id="h"><use transform="matrix(0.05,0,0,0.05,0,0)" xlink:href="#ai"/><use transform="matrix(0.05,0,0,0.05,12,0)" xlink:href="#ad"/><use transform="matrix(0.05,0,0,0.05,17.95,0)" xlink:href="#ad"/><use transform="matrix(0.05,0,0,0.05,23.9,0)" xlink:href="#aj"/><use transform="matrix(0.05,0,0,0.05,33.9,0)" xlink:href="#ad"/></g><path d="M135-143c-3-34-86-38-87 0 15 53 115 12 119 90S17 21 10-45l28-5c4 36 97 45 98 0-10-56-113-15-118-90-4-57 82-63 122-42 12 7 21 19 24 35" id="ar"/><g id="i"><use transform="matrix(0.05,0,0,0.05,0,0)" xlink:href="#ae"/><use transform="matrix(0.05,0,0,0.05,8.950000000000001,0)" xlink:href="#ap"/><use transform="matrix(0.05,0,0,0.05,18.950000000000003,0)" xlink:href="#ar"/><use transform="matrix(0.05,0,0,0.05,27.950000000000003,0)" xlink:href="#ab"/></g><g id="j"><use transform="matrix(0.04938271604938272,0,0,0.04938271604938272,0,0)" xlink:href="#am"/><use transform="matrix(0.04938271604938272,0,0,0.04938271604938272,12.790123456790125,0)" xlink:href="#aj"/></g><path d="M85-194c31 0 48 13 60 33l-1-100h32l1 261h-30c-2-10 0-23-3-31C134-8 116 4 85 4 32 4 16-35 15-94c0-66 23-100 70-100zm9 24c-40 0-46 34-46 75 0 40 6 74 45 74 42 0 51-32 51-76 0-42-9-74-50-73" id="as"/><g id="k"><use transform="matrix(0.05,0,0,0.05,0,0)" xlink:href="#ai"/><use transform="matrix(0.05,0,0,0.05,12,0)" xlink:href="#ag"/><use transform="matrix(0.05,0,0,0.05,22,0)" xlink:href="#as"/></g><path d="M137-103V0h-34v-103L8-248h37l75 118 75-118h37" id="at"/><g id="l"><use transform="matrix(0.05,0,0,0.05,0,0)" xlink:href="#at"/><use transform="matrix(0.05,0,0,0.05,10.35,0)" xlink:href="#ap"/><use transform="matrix(0.05,0,0,0.05,20.35,0)" xlink:href="#ar"/></g><path d="M27 0v-27h64v-190l-56 39v-29l58-41h29v221h61V0H27" id="au"/><path d="M33 0v-38h34V0H33" id="av"/><g id="m"><use transform="matrix(0.05,0,0,0.05,0,0)" xlink:href="#au"/><use transform="matrix(0.05,0,0,0.05,10,0)" xlink:href="#av"/></g><path d="M160-131c35 5 61 23 61 61C221 17 115-2 30 0v-248c76 3 177-17 177 60 0 33-19 50-47 57zm-97-11c50-1 110 9 110-42 0-47-63-36-110-37v79zm0 115c55-2 124 14 124-45 0-56-70-42-124-44v89" id="aw"/><g id="n"><use transform="matrix(0.05,0,0,0.05,0,0)" xlink:href="#aw"/><use transform="matrix(0.05,0,0,0.05,12,0)" xlink:href="#af"/><use transform="matrix(0.05,0,0,0.05,15.949999999999998,0)" xlink:href="#ah"/><use transform="matrix(0.05,0,0,0.05,25.950000000000003,0)" xlink:href="#ah"/><use transform="matrix(0.05,0,0,0.05,35.95,0)" xlink:href="#ap"/><use transform="matrix(0.05,0,0,0.05,45.95,0)" xlink:href="#ad"/></g><path d="M240 0l2-218c-23 76-54 145-80 218h-23L58-218 59 0H30v-248h44l77 211c21-75 51-140 76-211h43V0h-30" id="ax"/><path d="M24 0v-261h32V0H24" id="ay"/><path d="M68-36c1 33-1 63-14 82H32c9-13 17-26 17-46H33v-36h35zM33-154v-36h35v36H33" id="az"/><g id="o"><use transform="matrix(0.05,0,0,0.05,0,0)" xlink:href="#ax"/><use transform="matrix(0.05,0,0,0.05,14.950000000000001,0)" xlink:href="#aj"/><use transform="matrix(0.05,0,0,0.05,24.950000000000003,0)" xlink:href="#as"/><use transform="matrix(0.05,0,0,0.05,34.95,0)" xlink:href="#ap"/><use transform="matrix(0.05,0,0,0.05,44.95,0)" xlink:href="#ay"/><use transform="matrix(0.05,0,0,0.05,48.900000000000006,0)" xlink:href="#az"/></g><path d="M101-251c82-7 93 87 43 132L82-64C71-53 59-42 53-27h129V0H18c2-99 128-94 128-182 0-28-16-43-45-43s-46 15-49 41l-32-3c6-41 34-60 81-64" id="aA"/><g id="p"><use transform="matrix(0.05,0,0,0.05,0,0)" xlink:href="#aA"/><use transform="matrix(0.05,0,0,0.05,10,0)" xlink:href="#av"/></g><g id="q"><use transform="matrix(0.05,0,0,0.05,0,0)" xlink:href="#ae"/><use transform="matrix(0.05,0,0,0.05,10.3,0)" xlink:href="#ad"/><use transform="matrix(0.05,0,0,0.05,16.25,0)" xlink:href="#ac"/><use transform="matrix(0.05,0,0,0.05,26.25,0)" xlink:href="#af"/><use transform="matrix(0.05,0,0,0.05,30.200000000000003,0)" xlink:href="#ag"/></g><g id="r"><use transform="matrix(0.05,0,0,0.05,0,0)" xlink:href="#ay"/><use transform="matrix(0.05,0,0,0.05,3.95,0)" xlink:href="#aj"/><use transform="matrix(0.05,0,0,0.05,13.949999999999998,0)" xlink:href="#ag"/><use transform="matrix(0.05,0,0,0.05,23.95,0)" xlink:href="#ah"/><use transform="matrix(0.05,0,0,0.05,33.95,0)" xlink:href="#ap"/><use transform="matrix(0.05,0,0,0.05,43.95,0)" xlink:href="#ad"/><use transform="matrix(0.05,0,0,0.05,49.900000000000006,0)" xlink:href="#az"/></g><path d="M126-127c33 6 58 20 58 59 0 88-139 92-164 29-3-8-5-16-6-25l32-3c6 27 21 44 54 44 32 0 52-15 52-46 0-38-36-46-79-43v-28c39 1 72-4 72-42 0-27-17-43-46-43-28 0-47 15-49 41l-32-3c6-42 35-63 81-64 48-1 79 21 79 65 0 36-21 52-52 59" id="aB"/><g id="s"><use transform="matrix(0.05,0,0,0.05,0,0)" xlink:href="#aB"/><use transform="matrix(0.05,0,0,0.05,10,0)" xlink:href="#av"/></g><path d="M206 0h-36l-40-164L89 0H53L-1-190h32L70-26l43-164h34l41 164 42-164h31" id="aC"/><g id="t"><use transform="matrix(0.05,0,0,0.05,0,0)" xlink:href="#am"/><use transform="matrix(0.05,0,0,0.05,12.950000000000001,0)" xlink:href="#ap"/><use transform="matrix(0.05,0,0,0.05,22.950000000000003,0)" xlink:href="#aC"/></g><path d="M210-169c-67 3-38 105-44 169h-31v-121c0-29-5-50-35-48C34-165 62-65 56 0H25l-1-190h30c1 10-1 24 2 32 10-44 99-50 107 0 11-21 27-35 58-36 85-2 47 119 55 194h-31v-121c0-29-5-49-35-48" id="aD"/><g id="u"><use transform="matrix(0.05,0,0,0.05,0,0)" xlink:href="#aD"/><use transform="matrix(0.05,0,0,0.05,14.950000000000001,0)" xlink:href="#aj"/><use transform="matrix(0.05,0,0,0.05,24.950000000000003,0)" xlink:href="#as"/><use transform="matrix(0.05,0,0,0.05,34.95,0)" xlink:href="#ap"/><use transform="matrix(0.05,0,0,0.05,44.95,0)" xlink:href="#ay"/></g><path d="M96-169c-40 0-48 33-48 73s9 75 48 75c24 0 41-14 43-38l32 2c-6 37-31 61-74 61-59 0-76-41-82-99-10-93 101-131 147-64 4 7 5 14 7 22l-32 3c-4-21-16-35-41-35" id="aE"/><path d="M84 4C-5 8 30-112 23-190h32v120c0 31 7 50 39 49 72-2 45-101 50-169h31l1 190h-30c-1-10 1-25-2-33-11 22-28 36-60 37" id="aF"/><g id="v"><use transform="matrix(0.05,0,0,0.05,0,0)" xlink:href="#ac"/><use transform="matrix(0.05,0,0,0.05,10,0)" xlink:href="#ad"/><use transform="matrix(0.05,0,0,0.05,15.949999999999998,0)" xlink:href="#aE"/><use transform="matrix(0.05,0,0,0.05,24.95,0)" xlink:href="#al"/><use transform="matrix(0.05,0,0,0.05,34.95,0)" xlink:href="#af"/><use transform="matrix(0.05,0,0,0.05,38.900000000000006,0)" xlink:href="#ab"/><use transform="matrix(0.05,0,0,0.05,43.900000000000006,0)" xlink:href="#ap"/><use transform="matrix(0.05,0,0,0.05,53.900000000000006,0)" xlink:href="#aE"/><use transform="matrix(0.05,0,0,0.05,62.900000000000006,0)" xlink:href="#ab"/><use transform="matrix(0.05,0,0,0.05,67.9,0)" xlink:href="#aF"/><use transform="matrix(0.05,0,0,0.05,77.9,0)" xlink:href="#ad"/><use transform="matrix(0.05,0,0,0.05,83.85000000000001,0)" xlink:href="#ap"/><use transform="matrix(0.05,0,0,0.05,93.85000000000001,0)" xlink:href="#av"/></g><g id="w"><use transform="matrix(0.05,0,0,0.05,0,0)" xlink:href="#ax"/><use transform="matrix(0.05,0,0,0.05,14.950000000000001,0)" xlink:href="#aj"/><use transform="matrix(0.05,0,0,0.05,24.950000000000003,0)" xlink:href="#ad"/><use transform="matrix(0.05,0,0,0.05,30.900000000000002,0)" xlink:href="#ap"/></g><g id="x"><use transform="matrix(0.05,0,0,0.05,0,0)" xlink:href="#as"/><use transform="matrix(0.05,0,0,0.05,10,0)" xlink:href="#ac"/><use transform="matrix(0.05,0,0,0.05,20,0)" xlink:href="#ab"/><use transform="matrix(0.05,0,0,0.05,25,0)" xlink:href="#ac"/><use transform="matrix(0.05,0,0,0.05,35,0)" xlink:href="#az"/></g><path d="M233-177c-1 41-23 64-60 70L243 0h-38l-65-103H63V0H30v-248c88 3 205-21 203 71zM63-129c60-2 137 13 137-47 0-61-80-42-137-45v92" id="aG"/><path d="M9 0v-24l116-142H16v-24h144v24L44-24h123V0H9" id="aH"/><g id="y"><use transform="matrix(0.05,0,0,0.05,0,0)" xlink:href="#aG"/><use transform="matrix(0.05,0,0,0.05,12.950000000000001,0)" xlink:href="#ap"/><use transform="matrix(0.05,0,0,0.05,22.950000000000003,0)" xlink:href="#ah"/><use transform="matrix(0.05,0,0,0.05,32.95,0)" xlink:href="#aF"/><use transform="matrix(0.05,0,0,0.05,42.95,0)" xlink:href="#ay"/><use transform="matrix(0.05,0,0,0.05,46.900000000000006,0)" xlink:href="#ac"/><use transform="matrix(0.05,0,0,0.05,56.900000000000006,0)" xlink:href="#ad"/><use transform="matrix(0.05,0,0,0.05,62.85,0)" xlink:href="#af"/><use transform="matrix(0.05,0,0,0.05,66.80000000000001,0)" xlink:href="#aH"/><use transform="matrix(0.05,0,0,0.05,75.80000000000001,0)" xlink:href="#ac"/><use transform="matrix(0.05,0,0,0.05,85.80000000000001,0)" xlink:href="#ab"/><use transform="matrix(0.05,0,0,0.05,90.80000000000001,0)" xlink:href="#af"/><use transform="matrix(0.05,0,0,0.05,94.75000000000001,0)" xlink:href="#aj"/><use transform="matrix(0.05,0,0,0.05,104.75,0)" xlink:href="#ag"/><use transform="matrix(0.05,0,0,0.05,114.75,0)" xlink:href="#az"/></g><g id="z"><use transform="matrix(0.05,0,0,0.05,0,0)" xlink:href="#as"/><use transform="matrix(0.05,0,0,0.05,10,0)" xlink:href="#ac"/><use transform="matrix(0.05,0,0,0.05,20,0)" xlink:href="#ab"/><use transform="matrix(0.05,0,0,0.05,25,0)" xlink:href="#ac"/></g><g id="A"><use transform="matrix(0.05,0,0,0.05,0,0)" xlink:href="#ar"/><use transform="matrix(0.05,0,0,0.05,9,0)" xlink:href="#af"/><use transform="matrix(0.05,0,0,0.05,12.949999999999998,0)" xlink:href="#aD"/><use transform="matrix(0.05,0,0,0.05,27.899999999999995,0)" xlink:href="#af"/><use transform="matrix(0.05,0,0,0.05,31.849999999999994,0)" xlink:href="#ay"/><use transform="matrix(0.05,0,0,0.05,35.8,0)" xlink:href="#ac"/><use transform="matrix(0.05,0,0,0.05,45.8,0)" xlink:href="#ad"/></g><g id="B"><use transform="matrix(0.05,0,0,0.05,0,0)" xlink:href="#ab"/><use transform="matrix(0.05,0,0,0.05,5,0)" xlink:href="#aj"/></g><g id="C"><use transform="matrix(0.05,0,0,0.05,0,0)" xlink:href="#ab"/><use transform="matrix(0.05,0,0,0.05,5,0)" xlink:href="#ap"/><use transform="matrix(0.05,0,0,0.05,15,0)" xlink:href="#ar"/><use transform="matrix(0.05,0,0,0.05,24,0)" xlink:href="#ab"/><use transform="matrix(0.05,0,0,0.05,29,0)" xlink:href="#az"/></g><g id="D"><use transform="matrix(0.05,0,0,0.05,0,0)" xlink:href="#ao"/><use transform="matrix(0.05,0,0,0.05,12.950000000000001,0)" xlink:href="#ac"/><use transform="matrix(0.05,0,0,0.05,22.950000000000003,0)" xlink:href="#ab"/><use transform="matrix(0.05,0,0,0.05,27.950000000000003,0)" xlink:href="#ac"/></g><path d="M179-190L93 31C79 59 56 82 12 73V49c39 6 53-20 64-50L1-190h34L92-34l54-156h33" id="aI"/><g id="E"><use transform="matrix(0.05,0,0,0.05,0,0)" xlink:href="#ar"/><use transform="matrix(0.05,0,0,0.05,9,0)" xlink:href="#aI"/><use transform="matrix(0.05,0,0,0.05,18,0)" xlink:href="#ag"/><use transform="matrix(0.05,0,0,0.05,28,0)" xlink:href="#ab"/><use transform="matrix(0.05,0,0,0.05,33,0)" xlink:href="#al"/><use transform="matrix(0.05,0,0,0.05,43,0)" xlink:href="#ap"/><use transform="matrix(0.05,0,0,0.05,53,0)" xlink:href="#ar"/><use transform="matrix(0.05,0,0,0.05,62,0)" xlink:href="#af"/><use transform="matrix(0.05,0,0,0.05,65.95,0)" xlink:href="#ar"/><use transform="matrix(0.05,0,0,0.05,74.95,0)" xlink:href="#az"/></g><path d="M143 4C61 4 22-44 18-125c-5-107 100-154 193-111 17 8 29 25 37 43l-32 9c-13-25-37-40-76-40-61 0-88 39-88 99 0 61 29 100 91 101 35 0 62-11 79-27v-45h-74v-28h105v86C228-13 192 4 143 4" id="aJ"/><g id="F"><use transform="matrix(0.05,0,0,0.05,0,0)" xlink:href="#aJ"/><use transform="matrix(0.05,0,0,0.05,14,0)" xlink:href="#ap"/><use transform="matrix(0.05,0,0,0.05,24,0)" xlink:href="#ab"/></g><g id="G"><use transform="matrix(0.05,0,0,0.05,0,0)" xlink:href="#aD"/><use transform="matrix(0.05,0,0,0.05,14.950000000000001,0)" xlink:href="#aj"/><use transform="matrix(0.05,0,0,0.05,24.950000000000003,0)" xlink:href="#ad"/><use transform="matrix(0.05,0,0,0.05,30.900000000000002,0)" xlink:href="#ap"/></g><g id="H"><use transform="matrix(0.05,0,0,0.05,0,0)" xlink:href="#as"/><use transform="matrix(0.05,0,0,0.05,10,0)" xlink:href="#ap"/><use transform="matrix(0.05,0,0,0.05,20,0)" xlink:href="#aq"/></g><g id="I"><use transform="matrix(0.05,0,0,0.05,0,0)" xlink:href="#as"/><use transform="matrix(0.05,0,0,0.05,10,0)" xlink:href="#ac"/><use transform="matrix(0.05,0,0,0.05,20,0)" xlink:href="#ab"/><use transform="matrix(0.05,0,0,0.05,25,0)" xlink:href="#ac"/><use transform="matrix(0.05,0,0,0.05,35,0)" xlink:href="#az"/></g><g id="J"><use transform="matrix(0.04938271604938272,0,0,0.04938271604938272,0,0)" xlink:href="#aw"/><use transform="matrix(0.04938271604938272,0,0,0.04938271604938272,11.851851851851853,0)" xlink:href="#af"/><use transform="matrix(0.04938271604938272,0,0,0.04938271604938272,15.753086419753087,0)" xlink:href="#ac"/><use transform="matrix(0.04938271604938272,0,0,0.04938271604938272,25.629629629629633,0)" xlink:href="#ar"/></g><g id="K"><use transform="matrix(0.04938271604938272,0,0,0.04938271604938272,0,0)" xlink:href="#af"/><use transform="matrix(0.04938271604938272,0,0,0.04938271604938272,3.901234567901235,0)" xlink:href="#ar"/></g><g id="L"><use transform="matrix(0.04938271604938272,0,0,0.04938271604938272,0,0)" xlink:href="#al"/><use transform="matrix(0.04938271604938272,0,0,0.04938271604938272,9.876543209876544,0)" xlink:href="#af"/><use transform="matrix(0.04938271604938272,0,0,0.04938271604938272,13.777777777777779,0)" xlink:href="#ah"/><use transform="matrix(0.04938271604938272,0,0,0.04938271604938272,23.654320987654323,0)" xlink:href="#al"/></g><path d="M137 0h-34L2-248h35l83 218 83-218h36" id="aK"/><g id="M"><use transform="matrix(0.04938271604938272,0,0,0.04938271604938272,0,0)" xlink:href="#aK"/><use transform="matrix(0.04938271604938272,0,0,0.04938271604938272,10.518518518518519,0)" xlink:href="#ac"/><use transform="matrix(0.04938271604938272,0,0,0.04938271604938272,20.395061728395063,0)" xlink:href="#ad"/><use transform="matrix(0.04938271604938272,0,0,0.04938271604938272,26.271604938271608,0)" xlink:href="#af"/><use transform="matrix(0.04938271604938272,0,0,0.04938271604938272,30.172839506172842,0)" xlink:href="#ac"/><use transform="matrix(0.04938271604938272,0,0,0.04938271604938272,40.04938271604939,0)" xlink:href="#ag"/><use transform="matrix(0.04938271604938272,0,0,0.04938271604938272,49.92592592592593,0)" xlink:href="#aE"/><use transform="matrix(0.04938271604938272,0,0,0.04938271604938272,58.81481481481482,0)" xlink:href="#ap"/></g><g id="N"><use transform="matrix(0.04938271604938272,0,0,0.04938271604938272,0,0)" xlink:href="#ae"/><use transform="matrix(0.04938271604938272,0,0,0.04938271604938272,10.17283950617284,0)" xlink:href="#ad"/><use transform="matrix(0.04938271604938272,0,0,0.04938271604938272,16.049382716049383,0)" xlink:href="#ac"/><use transform="matrix(0.04938271604938272,0,0,0.04938271604938272,25.925925925925927,0)" xlink:href="#af"/><use transform="matrix(0.04938271604938272,0,0,0.04938271604938272,29.82716049382716,0)" xlink:href="#ag"/><use transform="matrix(0.04938271604938272,0,0,0.04938271604938272,39.70370370370371,0)" xlink:href="#an"/><use transform="matrix(0.04938271604938272,0,0,0.04938271604938272,45.580246913580254,0)" xlink:href="#ab"/><use transform="matrix(0.04938271604938272,0,0,0.04938271604938272,50.518518518518526,0)" xlink:href="#ap"/><use transform="matrix(0.04938271604938272,0,0,0.04938271604938272,60.39506172839506,0)" xlink:href="#ar"/><use transform="matrix(0.04938271604938272,0,0,0.04938271604938272,69.28395061728396,0)" xlink:href="#ab"/></g><g id="O"><use transform="matrix(0.04938271604938272,0,0,0.04938271604938272,0,0)" xlink:href="#aD"/><use transform="matrix(0.04938271604938272,0,0,0.04938271604938272,14.765432098765434,0)" xlink:href="#af"/><use transform="matrix(0.04938271604938272,0,0,0.04938271604938272,18.666666666666668,0)" xlink:href="#ar"/><use transform="matrix(0.04938271604938272,0,0,0.04938271604938272,27.555555555555557,0)" xlink:href="#aD"/><use transform="matrix(0.04938271604938272,0,0,0.04938271604938272,42.32098765432099,0)" xlink:href="#ac"/><use transform="matrix(0.04938271604938272,0,0,0.04938271604938272,52.19753086419754,0)" xlink:href="#ab"/><use transform="matrix(0.04938271604938272,0,0,0.04938271604938272,57.135802469135804,0)" xlink:href="#aE"/><use transform="matrix(0.04938271604938272,0,0,0.04938271604938272,66.0246913580247,0)" xlink:href="#al"/></g><path d="M140-251c81 0 123 46 123 126C263-46 219 4 140 4 59 4 17-45 17-125s42-126 123-126zm0 227c63 0 89-41 89-101s-29-99-89-99c-61 0-89 39-89 99S79-25 140-24" id="aL"/><path d="M101-234c-31-9-42 10-38 44h38v23H63V0H32v-167H5v-23h27c-7-52 17-82 69-68v24" id="aM"/><g id="P"><use transform="matrix(0.04938271604938272,0,0,0.04938271604938272,0,0)" xlink:href="#aL"/><use transform="matrix(0.04938271604938272,0,0,0.04938271604938272,13.827160493827162,0)" xlink:href="#aq"/><use transform="matrix(0.04938271604938272,0,0,0.04938271604938272,22.71604938271605,0)" xlink:href="#ap"/><use transform="matrix(0.04938271604938272,0,0,0.04938271604938272,32.592592592592595,0)" xlink:href="#ad"/><use transform="matrix(0.04938271604938272,0,0,0.04938271604938272,38.46913580246914,0)" xlink:href="#aM"/><use transform="matrix(0.04938271604938272,0,0,0.04938271604938272,43.40740740740741,0)" xlink:href="#af"/><use transform="matrix(0.04938271604938272,0,0,0.04938271604938272,47.308641975308646,0)" xlink:href="#ab"/><use transform="matrix(0.04938271604938272,0,0,0.04938271604938272,52.24691358024692,0)" xlink:href="#ab"/><use transform="matrix(0.04938271604938272,0,0,0.04938271604938272,57.18518518518519,0)" xlink:href="#af"/><use transform="matrix(0.04938271604938272,0,0,0.04938271604938272,61.086419753086425,0)" xlink:href="#ag"/><use transform="matrix(0.04938271604938272,0,0,0.04938271604938272,70.96296296296296,0)" xlink:href="#ah"/></g><g id="Q"><use transform="matrix(0.04938271604938272,0,0,0.04938271604938272,0,0)" xlink:href="#aj"/><use transform="matrix(0.04938271604938272,0,0,0.04938271604938272,9.876543209876544,0)" xlink:href="#aM"/></g><g id="R"><use transform="matrix(0.04938271604938272,0,0,0.04938271604938272,0,0)" xlink:href="#as"/><use transform="matrix(0.04938271604938272,0,0,0.04938271604938272,9.876543209876544,0)" xlink:href="#ap"/><use transform="matrix(0.04938271604938272,0,0,0.04938271604938272,19.75308641975309,0)" xlink:href="#aq"/></g><g id="S"><use transform="matrix(0.05,0,0,0.05,0,0)" xlink:href="#ak"/><use transform="matrix(0.05,0,0,0.05,12.950000000000001,0)" xlink:href="#aF"/><use transform="matrix(0.05,0,0,0.05,22.950000000000003,0)" xlink:href="#aD"/><use transform="matrix(0.05,0,0,0.05,37.900000000000006,0)" xlink:href="#ac"/><use transform="matrix(0.05,0,0,0.05,47.900000000000006,0)" xlink:href="#ag"/></g><g id="T"><use transform="matrix(0.05,0,0,0.05,0,0)" xlink:href="#ay"/><use transform="matrix(0.05,0,0,0.05,3.95,0)" xlink:href="#ap"/><use transform="matrix(0.05,0,0,0.05,13.949999999999998,0)" xlink:href="#aq"/><use transform="matrix(0.05,0,0,0.05,22.95,0)" xlink:href="#ap"/><use transform="matrix(0.05,0,0,0.05,32.95,0)" xlink:href="#ay"/></g><g id="U"><use transform="matrix(0.05,0,0,0.05,0,0)" xlink:href="#ap"/><use transform="matrix(0.05,0,0,0.05,10,0)" xlink:href="#ad"/><use transform="matrix(0.05,0,0,0.05,15.949999999999998,0)" xlink:href="#ad"/><use transform="matrix(0.05,0,0,0.05,21.9,0)" xlink:href="#aj"/><use transform="matrix(0.05,0,0,0.05,31.899999999999995,0)" xlink:href="#ad"/></g><g id="V"><use transform="matrix(0.05,0,0,0.05,0,0)" xlink:href="#ae"/><use transform="matrix(0.05,0,0,0.05,10.3,0)" xlink:href="#ad"/><use transform="matrix(0.05,0,0,0.05,16.25,0)" xlink:href="#ac"/><use transform="matrix(0.05,0,0,0.05,26.25,0)" xlink:href="#af"/><use transform="matrix(0.05,0,0,0.05,30.200000000000003,0)" xlink:href="#ag"/><use transform="matrix(0.05,0,0,0.05,40.2,0)" xlink:href="#af"/><use transform="matrix(0.05,0,0,0.05,44.150000000000006,0)" xlink:href="#ag"/><use transform="matrix(0.05,0,0,0.05,54.150000000000006,0)" xlink:href="#ah"/></g><g id="W"><use transform="matrix(0.05,0,0,0.05,0,0)" xlink:href="#ar"/><use transform="matrix(0.05,0,0,0.05,9,0)" xlink:href="#ap"/><use transform="matrix(0.05,0,0,0.05,19,0)" xlink:href="#ab"/></g><g id="X"><use transform="matrix(0.05,0,0,0.05,0,0)" xlink:href="#ae"/><use transform="matrix(0.05,0,0,0.05,10.3,0)" xlink:href="#ad"/><use transform="matrix(0.05,0,0,0.05,16.25,0)" xlink:href="#ac"/><use transform="matrix(0.05,0,0,0.05,26.25,0)" xlink:href="#af"/><use transform="matrix(0.05,0,0,0.05,30.200000000000003,0)" xlink:href="#ag"/><use transform="matrix(0.05,0,0,0.05,40.2,0)" xlink:href="#af"/><use transform="matrix(0.05,0,0,0.05,44.150000000000006,0)" xlink:href="#ag"/><use transform="matrix(0.05,0,0,0.05,54.150000000000006,0)" xlink:href="#ah"/><use transform="matrix(0.05,0,0,0.05,64.15,0)" xlink:href="#an"/><use transform="matrix(0.05,0,0,0.05,70.10000000000001,0)" xlink:href="#ao"/><use transform="matrix(0.05,0,0,0.05,83.05000000000001,0)" xlink:href="#ap"/><use transform="matrix(0.05,0,0,0.05,93.05000000000001,0)" xlink:href="#aq"/></g><g id="Y"><use transform="matrix(0.05,0,0,0.05,0,0)" xlink:href="#ao"/><use transform="matrix(0.05,0,0,0.05,12.950000000000001,0)" xlink:href="#ap"/><use transform="matrix(0.05,0,0,0.05,22.950000000000003,0)" xlink:href="#aq"/></g><g id="Z"><use transform="matrix(0.05,0,0,0.05,0,0)" xlink:href="#ae"/><use transform="matrix(0.05,0,0,0.05,8.950000000000001,0)" xlink:href="#ap"/><use transform="matrix(0.05,0,0,0.05,18.950000000000003,0)" xlink:href="#ar"/><use transform="matrix(0.05,0,0,0.05,27.950000000000003,0)" xlink:href="#ab"/></g></defs></g></svg>