<svg width="65" height="67" xmlns="http://www.w3.org/2000/svg" xmlns:xlink="http://www.w3.org/1999/xlink" xml:space="preserve" overflow="hidden"><g transform="translate(-885 -185)"><g><g><g><g><path d="M39.862 38.17C39.9751 38.8431 40.3421 39.4473 40.8873 39.858L49.3627 46.242C50.5331 47.136 52.2065 46.912 53.1005 45.7416 53.9945 44.5712 53.7705 42.8977 52.6001 42.0037 52.5906 41.9964 52.581 41.9892 52.5713 41.982L44.9453 36.2373 43.2667 26.2253C43.1671 25.6435 42.8756 25.1117 42.4387 24.7147 42.3183 24.5027 42.1708 24.3073 42 24.1333 40.3463 22.7939 38.4427 21.7968 36.4 21.2 34.9522 20.8912 33.4797 20.7127 32 20.6667 30.5102 20.6924 29.0305 20.9166 27.6 21.3333 25.5355 21.875 23.6208 22.8779 22 24.2667 21.9393 24.3304 21.8819 24.3971 21.828 24.4667 21.2299 24.8743 20.8239 25.5082 20.704 26.222L19.022 36.2373 11.396 41.982C10.2137 42.8601 9.967 44.5304 10.8451 45.7128 11.7231 46.8951 13.3935 47.1418 14.5759 46.2637 14.5855 46.2565 14.5951 46.2493 14.6047 46.242L23.08 39.858C23.6252 39.4473 23.9922 38.8431 24.1053 38.17L25.2667 31.246 25.3333 31.3333 25.3333 48.3133C29.7567 48.9247 34.2433 48.9247 38.6667 48.3133L38.6667 31.2 38.6867 31.1727Z" fill="#000000" fill-rule="nonzero" fill-opacity="1" transform="matrix(1 0 0 1.01562 886 186)"/><path d="M35.118 50.5607 35.092 50.5607C34.9713 50.574 34.518 50.6 34.4187 50.6073 33.56 50.674 33.27 50.67 32 50.674 25.8122 50.6843 19.6471 49.9252 13.6467 48.414 12.212 48.0813 10.7793 48.9747 10.4466 50.4094 10.122 51.8095 10.9653 53.2149 12.3533 53.5873 18.7785 55.1949 25.3767 56.0076 32 56.0073 34.1333 56.0073 37.8247 56.4173 37.8247 53.3073 37.8246 53.0827 37.798 52.859 37.7453 52.6407 37.4427 51.4317 36.3642 50.5778 35.118 50.5607Z" fill="#000000" fill-rule="nonzero" fill-opacity="1" transform="matrix(1 0 0 1.01562 886 186)"/><path d="M53.5867 50.354C53.2293 48.9255 51.7819 48.0571 50.3533 48.414 46.5355 49.2863 42.6753 49.9616 38.788 50.4373 39.2693 50.9938 39.612 51.6563 39.788 52.3707 39.8812 52.748 39.9282 53.1353 39.928 53.524 39.9303 54.2963 39.7401 55.057 39.3747 55.7373 43.5003 55.2371 47.5967 54.5194 51.6467 53.5873 53.0751 53.23 53.9436 51.7825 53.5867 50.354Z" fill="#000000" fill-rule="nonzero" fill-opacity="1" transform="matrix(1 0 0 1.01562 886 186)"/><path d="M37.3473 14C37.3473 16.9455 34.9595 19.3333 32.014 19.3333 29.0685 19.3333 26.6807 16.9455 26.6807 14 26.6807 11.0545 29.0685 8.66667 32.014 8.66667 34.9595 8.66667 37.3473 11.0545 37.3473 14Z" fill="#000000" fill-rule="nonzero" fill-opacity="1" transform="matrix(1 0 0 1.01562 886 186)"/></g></g></g></g></g></svg>