<svg width="91" height="91" xmlns="http://www.w3.org/2000/svg" xmlns:xlink="http://www.w3.org/1999/xlink" xml:space="preserve" overflow="hidden"><defs><clipPath id="clip0"><path d="M330.084 432.813 369.313 383.791 418.335 423.021 379.105 472.042Z" fill-rule="nonzero" clip-rule="nonzero"/></clipPath><clipPath id="clip1"><path d="M330.084 432.813 369.313 383.791 418.335 423.021 379.105 472.042Z" fill-rule="evenodd" clip-rule="evenodd"/></clipPath><clipPath id="clip2"><path d="M330.084 432.813 369.313 383.791 418.335 423.021 379.105 472.042Z" fill-rule="evenodd" clip-rule="evenodd"/></clipPath></defs><g transform="translate(-329 -382)"><g><g clip-path="url(#clip0)"><g clip-path="url(#clip1)"><g clip-path="url(#clip2)"><path d="M361.649 406.976C363.905 408.781 364.271 412.074 362.465 414.33 360.66 416.586 357.367 416.952 355.111 415.146 352.855 413.341 352.49 410.048 354.295 407.792 356.101 405.536 359.393 405.17 361.649 406.976Z" fill="#000000" fill-rule="nonzero" fill-opacity="1"/><path d="M382.608 413.445 376.662 417.315C376.662 417.315 367.593 414.831 367.307 414.77 365.458 414.463 363.527 415.096 362.302 416.628 361.811 417.241 361.474 417.976 361.321 418.691L358.408 428.088C358.204 428.762 358.285 429.497 358.633 430.11L362.717 437.567C363.412 438.793 365.005 439.314 366.271 438.569 366.578 438.395 366.833 438.181 367.038 437.925 367.691 437.108 367.845 435.975 367.273 435.014L363.638 428.671 364.537 425.872 378.926 443.167 381.774 456.67C382.07 458.08 383.428 458.999 384.838 458.703 385.43 458.591 385.951 458.254 386.319 457.795 386.809 457.182 387.003 456.416 386.82 455.599L383.86 441.503C383.768 441.094 383.584 440.696 383.319 440.4L378.376 434.434 386.772 432.106 396.985 440.279C398.108 441.178 399.763 440.995 400.662 439.871 401.561 438.748 401.378 437.093 400.254 436.194L389.02 427.204C388.356 426.673 387.498 426.489 386.732 426.713L379.143 428.765 373.352 421.87 376.376 422.698C377.091 422.851 377.826 422.769 378.48 422.371L385.426 417.878C385.641 417.715 385.855 417.551 386.059 417.296 386.754 416.428 386.805 415.212 386.234 414.252 385.447 413.036 383.823 412.658 382.608 413.445Z" fill="#000000" fill-rule="nonzero" fill-opacity="1"/></g></g></g></g></g></svg>